# WaveFront *.obj file (generated by Autodesk ATF)

mtllib a156659d-fd51-4d2e-bdd8-719849880a1d.mtl

g Body1

v -12.790479 0.000000 5.297990
v -12.790479 0.000000 -5.297990
v -5.297990 0.000000 -12.790479
v 5.297990 0.000000 -12.790479
v 12.790479 0.000000 -5.297990
v 12.790479 0.000000 5.297990
v 5.297990 0.000000 12.790479
v -5.297990 0.000000 12.790479
v 0.000000 25.000000 0.000000
vt -0.529799 -1.279048 0.000000
vt 0.529799 -1.279048 0.000000
vt -1.279048 -0.529799 0.000000
vt 1.279048 -0.529799 0.000000
vt -1.279048 0.529799 0.000000
vt 1.279048 0.529799 0.000000
vt -0.529799 1.279048 0.000000
vt 0.529799 1.279048 0.000000
vt -1.059598 0.000000 0.000000
vt -0.000000 0.000000 0.000000
vt -0.529799 2.808196 0.000000
vt -1.059598 0.000000 0.000000
vt -0.000000 0.000000 0.000000
vt -0.529799 2.808196 0.000000
vt -1.059598 0.000000 0.000000
vt -0.000000 0.000000 0.000000
vt -0.529799 2.808196 0.000000
vt -1.059598 -0.000000 0.000000
vt -0.000000 0.000000 0.000000
vt -0.529799 2.808196 0.000000
vt -1.059598 0.000000 0.000000
vt -0.000000 0.000000 0.000000
vt -0.529799 2.808196 0.000000
vt -1.059598 0.000000 0.000000
vt -0.000000 0.000000 0.000000
vt -0.529799 2.808196 0.000000
vt -1.059598 0.000000 0.000000
vt -0.000000 0.000000 0.000000
vt -0.529799 2.808196 0.000000
vt -1.059598 0.000000 0.000000
vt -0.000000 0.000000 0.000000
vt -0.529799 2.808196 0.000000
vn 0.000000 -0.100000 0.000000
vn 0.000000 -0.100000 0.000000
vn 0.000000 -0.100000 0.000000
vn 0.000000 -0.100000 0.000000
vn 0.000000 -0.100000 0.000000
vn 0.000000 -0.100000 0.000000
vn 0.000000 -0.100000 0.000000
vn 0.000000 -0.100000 0.000000
vn -0.089025 0.045547 -0.000000
vn -0.089025 0.045547 -0.000000
vn -0.089025 0.045547 -0.000000
vn -0.062950 0.045547 -0.062950
vn -0.062950 0.045547 -0.062950
vn -0.062950 0.045547 -0.062950
vn 0.000000 0.045547 -0.089025
vn 0.000000 0.045547 -0.089025
vn 0.000000 0.045547 -0.089025
vn 0.062950 0.045547 -0.062950
vn 0.062950 0.045547 -0.062950
vn 0.062950 0.045547 -0.062950
vn 0.089025 0.045547 -0.000000
vn 0.089025 0.045547 -0.000000
vn 0.089025 0.045547 -0.000000
vn 0.062950 0.045547 0.062950
vn 0.062950 0.045547 0.062950
vn 0.062950 0.045547 0.062950
vn 0.000000 0.045547 0.089025
vn 0.000000 0.045547 0.089025
vn 0.000000 0.045547 0.089025
vn -0.062950 0.045547 0.062950
vn -0.062950 0.045547 0.062950
vn -0.062950 0.045547 0.062950
usemtl Glass_(Green)
f 1/1/1 2/2/2 8/3/3
f 8/3/3 2/2/2 3/4/4
f 8/3/3 3/4/4 7/5/5
f 7/5/5 3/4/4 4/6/6
f 7/5/5 4/6/6 6/7/7
f 6/7/7 4/6/6 5/8/8
f 2/9/9 1/10/10 9/11/11
f 3/12/12 2/13/13 9/14/14
f 4/15/15 3/16/16 9/17/17
f 5/18/18 4/19/19 9/20/20
f 6/21/21 5/22/22 9/23/23
f 7/24/24 6/25/25 9/26/26
f 8/27/27 7/28/28 9/29/29
f 1/30/30 8/31/31 9/32/32

g Body2

v -12.790479 0.000000 -5.297990
v -12.790479 0.000000 5.297990
v -5.297990 0.000000 12.790479
v 5.297990 0.000000 12.790479
v 12.790479 0.000000 5.297990
v 12.790479 0.000000 -5.297990
v 5.297990 0.000000 -12.790479
v -5.297990 0.000000 -12.790479
v 0.000000 -25.000000 0.000000
vt -0.529799 -1.279048 0.000000
vt 0.529799 -1.279048 0.000000
vt -1.279048 -0.529799 0.000000
vt 1.279048 -0.529799 0.000000
vt -1.279048 0.529799 0.000000
vt 1.279048 0.529799 0.000000
vt -0.529799 1.279048 0.000000
vt 0.529799 1.279048 0.000000
vt 0.000000 0.000000 0.000000
vt 1.059598 0.000000 0.000000
vt 0.529799 2.808196 0.000000
vt 0.000000 0.000000 0.000000
vt 1.059598 0.000000 0.000000
vt 0.529799 2.808196 0.000000
vt 0.000000 0.000000 0.000000
vt 1.059598 0.000000 0.000000
vt 0.529799 2.808196 0.000000
vt 0.000000 0.000000 0.000000
vt 1.059598 -0.000000 0.000000
vt 0.529799 2.808196 0.000000
vt 0.000000 0.000000 0.000000
vt 1.059598 0.000000 0.000000
vt 0.529799 2.808196 0.000000
vt 0.000000 -0.000000 0.000000
vt 1.059598 0.000000 0.000000
vt 0.529799 2.808196 0.000000
vt 0.000000 -0.000000 0.000000
vt 1.059598 0.000000 0.000000
vt 0.529799 2.808196 0.000000
vt -0.000000 0.000000 0.000000
vt 1.059598 0.000000 0.000000
vt 0.529799 2.808196 0.000000
vn -0.000000 0.100000 -0.000000
vn -0.000000 0.100000 -0.000000
vn -0.000000 0.100000 -0.000000
vn -0.000000 0.100000 -0.000000
vn -0.000000 0.100000 -0.000000
vn -0.000000 0.100000 -0.000000
vn -0.000000 0.100000 -0.000000
vn -0.000000 0.100000 -0.000000
vn -0.089025 -0.045547 -0.000000
vn -0.089025 -0.045547 -0.000000
vn -0.089025 -0.045547 -0.000000
vn -0.062950 -0.045547 -0.062950
vn -0.062950 -0.045547 -0.062950
vn -0.062950 -0.045547 -0.062950
vn 0.000000 -0.045547 -0.089025
vn 0.000000 -0.045547 -0.089025
vn 0.000000 -0.045547 -0.089025
vn 0.062950 -0.045547 -0.062950
vn 0.062950 -0.045547 -0.062950
vn 0.062950 -0.045547 -0.062950
vn 0.089025 -0.045547 -0.000000
vn 0.089025 -0.045547 -0.000000
vn 0.089025 -0.045547 -0.000000
vn 0.062950 -0.045547 0.062950
vn 0.062950 -0.045547 0.062950
vn 0.062950 -0.045547 0.062950
vn 0.000000 -0.045547 0.089025
vn 0.000000 -0.045547 0.089025
vn 0.000000 -0.045547 0.089025
vn -0.062950 -0.045547 0.062950
vn -0.062950 -0.045547 0.062950
vn -0.062950 -0.045547 0.062950
f 10/33/33 11/34/34 17/35/35
f 17/35/35 11/34/34 12/36/36
f 17/35/35 12/36/36 16/37/37
f 16/37/37 12/36/36 13/38/38
f 16/37/37 13/38/38 15/39/39
f 15/39/39 13/38/38 14/40/40
f 11/41/41 10/42/42 18/43/43
f 10/44/44 17/45/45 18/46/46
f 17/47/47 16/48/48 18/49/49
f 16/50/50 15/51/51 18/52/52
f 15/53/53 14/54/54 18/55/55
f 14/56/56 13/57/57 18/58/58
f 13/59/59 12/60/60 18/61/61
f 12/62/62 11/63/63 18/64/64

# 18 vertices
# 64 texture params
# 64 normals
# 28 facets

# 2 groups
